<svg xmlns="http://www.w3.org/2000/svg" viewBox="0 0 114.56 74.92"><defs><style>.cls-1{fill:#fff;}</style></defs><g id="Lag_2" data-name="Lag 2"><g id="Layer_1" data-name="Layer 1"><path class="cls-1" d="M2,57.22a.11.11,0,0,1,.11-.08H3.5a.11.11,0,0,1,.11.08l1.95,5.61c0,.05,0,.09-.06.09H4.1A.12.12,0,0,1,4,62.83l-.27-.89H1.84l-.27.89a.12.12,0,0,1-.11.09H.06s-.07,0,0-.09ZM3.35,60.7l-.54-1.8h0l-.56,1.8Z"/><path class="cls-1" d="M9.43,57.22a.11.11,0,0,1,.11-.08h1.39a.11.11,0,0,1,.11.08l2,5.61a.06.06,0,0,1-.06.09h-1.4a.12.12,0,0,1-.11-.09l-.27-.89H9.27L9,62.83a.12.12,0,0,1-.11.09H7.49s-.07,0-.06-.09Zm1.34,3.48-.53-1.8h0l-.56,1.8Z"/><path class="cls-1" d="M15.25,57.22a.07.07,0,0,1,.08-.08h1.33a.07.07,0,0,1,.08.08v4.32a0,0,0,0,0,.05.05h2.45a.09.09,0,0,1,.09.09v1.15a.09.09,0,0,1-.09.09H15.33a.08.08,0,0,1-.08-.09Z"/><path class="cls-1" d="M21.65,57.22a.08.08,0,0,1,.09-.08h2.35c1.3,0,1.89.62,1.89,1.54a1.32,1.32,0,0,1-.71,1.24h0a1.38,1.38,0,0,1,.81,1.32c0,1.13-.8,1.67-2,1.67H21.74a.09.09,0,0,1-.09-.09Zm2.15,2.24q.69,0,.69-.6c0-.4-.23-.59-.69-.59h-.6a0,0,0,0,0-.05,0v1.09a0,0,0,0,0,.05.05Zm-.6,2.33h.68c.47,0,.71-.23.71-.66s-.24-.64-.71-.64H23.2s-.05,0-.05,0v1.2A0,0,0,0,0,23.2,61.79Z"/><path class="cls-1" d="M28.61,61.6a7.33,7.33,0,0,1,0-3.14A2.09,2.09,0,0,1,30.77,57a2.11,2.11,0,0,1,2.17,1.42A4.38,4.38,0,0,1,33.11,60a4.38,4.38,0,0,1-.17,1.57A2.12,2.12,0,0,1,30.77,63,2.11,2.11,0,0,1,28.61,61.6Zm2.9-.42a7.39,7.39,0,0,0,0-2.3.78.78,0,0,0-1.47,0,7.39,7.39,0,0,0,0,2.3.79.79,0,0,0,1.47,0Z"/><path class="cls-1" d="M38.71,62.92a.11.11,0,0,1-.12-.09l-.88-2h-.55s0,0,0,0v1.92a.09.09,0,0,1-.09.09H35.7a.09.09,0,0,1-.09-.09V57.22a.08.08,0,0,1,.09-.08h2.35A1.84,1.84,0,0,1,40.13,59a1.71,1.71,0,0,1-1,1.61l1.06,2.21a.06.06,0,0,1-.06.1ZM38.64,59A.61.61,0,0,0,38,58.4h-.8s0,0,0,.06v1.12s0,.05,0,.05H38A.6.6,0,0,0,38.64,59Z"/><path class="cls-1" d="M42.48,60a4.62,4.62,0,0,1,.17-1.57,2.39,2.39,0,0,1,4.27-.19.09.09,0,0,1,0,.13l-1.1.47a.1.1,0,0,1-.13,0,.87.87,0,0,0-.82-.47.71.71,0,0,0-.75.51A3.73,3.73,0,0,0,44,60a4.1,4.1,0,0,0,.09,1.15.75.75,0,0,0,.79.5.73.73,0,0,0,.76-.45,1.06,1.06,0,0,0,0-.38s0-.05,0-.05H45a.07.07,0,0,1-.08-.08v-1c0-.06,0-.09.08-.09h2.07s.08,0,.08.09v.44A4.3,4.3,0,0,1,47,61.54a2.36,2.36,0,0,1-4.35.06A4.62,4.62,0,0,1,42.48,60Z"/><path class="cls-1" d="M53.36,60.68V57.22a.07.07,0,0,1,.08-.08h1.33a.08.08,0,0,1,.09.08v3.56a.79.79,0,0,0,.8.9c.5,0,.8-.33.8-.9V57.22a.08.08,0,0,1,.09-.08h1.32a.08.08,0,0,1,.09.08v3.46a2.3,2.3,0,1,1-4.6,0Z"/><path class="cls-1" d="M60.58,57.22a.07.07,0,0,1,.08-.08h1.25a.13.13,0,0,1,.14.08L63.8,60.5h0V57.22a.08.08,0,0,1,.09-.08h1.19a.07.07,0,0,1,.08.08v5.61a.08.08,0,0,1-.08.09H63.86a.16.16,0,0,1-.15-.09L62,59.57h-.05v3.26a.09.09,0,0,1-.09.09H60.66a.08.08,0,0,1-.08-.09Z"/><path class="cls-1" d="M67.83,57.22a.07.07,0,0,1,.08-.08h1.33a.07.07,0,0,1,.08.08v5.61a.08.08,0,0,1-.08.09H67.91a.08.08,0,0,1-.08-.09Z"/><path class="cls-1" d="M73.52,62.92c-.06,0-.09,0-.11-.09l-1.84-5.6s0-.09.07-.09H73a.1.1,0,0,1,.11.08l1,3.49h0l1-3.49c0-.06,0-.08.11-.08h1.38c.06,0,.09,0,.07.09l-1.85,5.6a.1.1,0,0,1-.11.09Z"/><path class="cls-1" d="M79,57.22a.08.08,0,0,1,.09-.08h3.78a.08.08,0,0,1,.09.08v1.1a.08.08,0,0,1-.09.08H80.55s0,0,0,.06v.87a0,0,0,0,0,0,.05h1.9a.08.08,0,0,1,.09.09v1.07c0,.05,0,.08-.09.08h-1.9a0,0,0,0,0,0,.05v.93a0,0,0,0,0,0,0h2.32a.08.08,0,0,1,.09.09v1.09a.09.09,0,0,1-.09.09H79.09a.09.09,0,0,1-.09-.09Z"/><path class="cls-1" d="M88.54,62.92c-.08,0-.1,0-.13-.09l-.87-2H87a0,0,0,0,0,0,0v1.92a.08.08,0,0,1-.08.09H85.52a.08.08,0,0,1-.08-.09V57.22a.07.07,0,0,1,.08-.08h2.36A1.85,1.85,0,0,1,90,59,1.71,1.71,0,0,1,89,60.61l1.06,2.21a.06.06,0,0,1-.06.1ZM88.46,59a.6.6,0,0,0-.68-.62H87s0,0,0,.06v1.12a0,0,0,0,0,0,.05h.8A.6.6,0,0,0,88.46,59Z"/><path class="cls-1" d="M92.24,62.19a.09.09,0,0,1,0-.13l.76-.9a.08.08,0,0,1,.12,0,2.32,2.32,0,0,0,1.47.58c.54,0,.82-.22.82-.55s-.16-.4-.73-.48l-.31,0c-1.25-.18-1.93-.74-1.93-1.82s.84-1.8,2.15-1.8a3.51,3.51,0,0,1,2.07.63.09.09,0,0,1,0,.13l-.64.93s-.08.05-.12,0a2.35,2.35,0,0,0-1.3-.43c-.43,0-.64.2-.64.48s.19.42.74.49l.31,0c1.26.18,1.91.74,1.91,1.84S96.11,63,94.57,63A3.59,3.59,0,0,1,92.24,62.19Z"/><path class="cls-1" d="M99.33,57.22a.07.07,0,0,1,.08-.08h1.33a.07.07,0,0,1,.08.08v5.61a.08.08,0,0,1-.08.09H99.41a.08.08,0,0,1-.08-.09Z"/><path class="cls-1" d="M104.73,62.92h0s0,0,0,0V58.52a.07.07,0,0,0,0-.06H103.1a.09.09,0,0,1,0,0V57.22a.09.09,0,0,1,.06-.08h4.46l.06,0v0l0,0v1.16a.11.11,0,0,1,0,.07h-1.51l0,0v4.37s0,0,0,0h-1.37Z"/><path class="cls-1" d="M111.4,62.92a.09.09,0,0,1-.09-.09V60.68l-1.75-3.45s0-.09.07-.09H111a.14.14,0,0,1,.14.08l1,2h0l1-2a.12.12,0,0,1,.13-.08h1.31c.07,0,.09,0,.07.09l-1.75,3.45v2.15a.09.09,0,0,1-.09.09Z"/><path class="cls-1" d="M34.19,69.22a.07.07,0,0,1,.08-.08h1.81a1.72,1.72,0,0,1,1.85,1.17A5.15,5.15,0,0,1,38.09,72a5.12,5.12,0,0,1-.16,1.71,1.72,1.72,0,0,1-1.85,1.18H34.27a.08.08,0,0,1-.08-.09Zm.53,5.24H36a1.33,1.33,0,0,0,1.44-.88A4.74,4.74,0,0,0,37.6,72a4.82,4.82,0,0,0-.14-1.56A1.32,1.32,0,0,0,36,69.6h-1.3s0,0,0,.05v4.76A0,0,0,0,0,34.72,74.46Z"/><path class="cls-1" d="M41.16,69.22a.07.07,0,0,1,.08-.08h3.31a.07.07,0,0,1,.08.08v.29a.08.08,0,0,1-.08.09H41.69s0,0,0,.05v2s0,.06,0,.06h2.46a.07.07,0,0,1,.08.08v.29a.07.07,0,0,1-.08.08H41.69s0,0,0,.06v2.14a0,0,0,0,0,0,0h2.86a.07.07,0,0,1,.08.08v.29a.08.08,0,0,1-.08.09H41.24a.08.08,0,0,1-.08-.09Z"/><path class="cls-1" d="M47.58,69.22a.08.08,0,0,1,.09-.08H48a.17.17,0,0,1,.15.08L51,74h0V69.22a.08.08,0,0,1,.09-.08h.31c.06,0,.09,0,.09.08v5.61a.08.08,0,0,1-.09.09H51.1a.15.15,0,0,1-.14-.09L48.1,70.07h0v4.76a.09.09,0,0,1-.09.09h-.31a.09.09,0,0,1-.09-.09Z"/><path class="cls-1" d="M54.82,69.22a.07.07,0,0,1,.08-.08h.33a.11.11,0,0,1,.12.08l1.88,4.14h0l1.83-4.14a.12.12,0,0,1,.12-.08h.33a.08.08,0,0,1,.09.08v5.61a.09.09,0,0,1-.09.09h-.31a.09.09,0,0,1-.09-.09V70.31h0L57.46,74a.14.14,0,0,1-.15.1h-.17c-.08,0-.11,0-.15-.1l-1.66-3.66h0v4.52a.08.08,0,0,1-.08.09H54.9a.08.08,0,0,1-.08-.09Z"/><path class="cls-1" d="M64.42,69.22a.11.11,0,0,1,.1-.08h.31c.06,0,.08,0,.1.08l2,5.61s0,.09-.06.09h-.33a.09.09,0,0,1-.11-.09l-.51-1.42H63.41l-.51,1.42c0,.07-.06.09-.11.09h-.33a.06.06,0,0,1-.06-.09ZM65.76,73l-1.07-3h0l-1.09,3Z"/><path class="cls-1" d="M73.13,74.92c-.06,0-.08,0-.11-.08l-1.21-2.51H70.24s0,0,0,0v2.45a.09.09,0,0,1-.09.09h-.31a.08.08,0,0,1-.09-.09V69.22s0-.08.09-.08h1.93a1.56,1.56,0,0,1,1.76,1.6,1.48,1.48,0,0,1-1.18,1.53l1.26,2.55c0,.05,0,.1,0,.1ZM73,70.74c0-.73-.46-1.14-1.29-1.14H70.24s0,0,0,.05v2.17s0,.05,0,.05h1.47C72.54,71.87,73,71.47,73,70.74Z"/><path class="cls-1" d="M76.63,69.22a.07.07,0,0,1,.08-.08H77a.07.07,0,0,1,.08.08v3.33l2.76-3.34a.17.17,0,0,1,.14-.07h.4s.08,0,0,.09l-1.82,2.19,2,3.4c0,.05,0,.1,0,.1h-.39a.13.13,0,0,1-.12-.08l-1.75-3-1.18,1.41v1.61a.08.08,0,0,1-.08.09h-.32a.08.08,0,0,1-.08-.09Z"/><path class="cls-1" d="M74,32.35a27.72,27.72,0,0,1-4-2c-5.12-3.12-6.67-7.76-3.8-15.86,1.67-4.69,2.47-8.64,2-12.91L68,1.48c-.27,5.36-2.24,8.69-5.78,14.33-7.5,11.94.11,20.7,3.73,23.42A21.82,21.82,0,0,0,74,32.35Z"/><path class="cls-1" d="M58.78,15.37c5.77-6.8,7.65-9.94,8-14.62L66.64.64c-1.34,5.6-4.7,8.57-13.55,14.47-9.53,6.34-9.1,17.25-6.67,24a21.57,21.57,0,0,0,9.85,2.37,20.87,20.87,0,0,0,2.24-.11C51.63,31,52.1,23.22,58.78,15.37Z"/><path class="cls-1" d="M55.24,10.35c6.39-2.77,9.41-7,10.29-10.27L65.36,0C62.58,5.81,57,6.78,47.55,8.05a18,18,0,0,0-12.64,8A21.73,21.73,0,0,0,39.4,33.44C39.13,17.16,47.59,13.67,55.24,10.35Z"/></g></g></svg>